<mxfile host="Electron" agent="Mozilla/5.0 (X11; Linux x86_64) AppleWebKit/537.36 (KHTML, like Gecko) draw.io/28.1.2 Chrome/138.0.7204.243 Electron/37.4.0 Safari/537.36" version="28.1.2">
  <diagram name="Page-1" id="DE558cIMODuHcayU18PG">
    <mxGraphModel dx="2163" dy="534" grid="1" gridSize="10" guides="1" tooltips="1" connect="1" arrows="1" fold="1" page="1" pageScale="1" pageWidth="850" pageHeight="1100" math="0" shadow="0">
      <root>
        <mxCell id="0" />
        <mxCell id="1" parent="0" />
        <mxCell id="xQ8-l3OYiPr22vGl-wYF-2" value="" style="rounded=0;whiteSpace=wrap;html=1;strokeColor=light-dark(#1E90FF,#0000FF);" vertex="1" parent="1">
          <mxGeometry x="-85" y="308" width="409" height="44" as="geometry" />
        </mxCell>
        <mxCell id="bjkUvZcgwg1lJS7RY962-25" value="" style="rounded=0;whiteSpace=wrap;html=1;strokeColor=light-dark(#FF0000,#FF0000);" parent="1" vertex="1">
          <mxGeometry x="50" y="218" width="409" height="44" as="geometry" />
        </mxCell>
        <mxCell id="xQ8-l3OYiPr22vGl-wYF-5" style="edgeStyle=orthogonalEdgeStyle;rounded=0;orthogonalLoop=1;jettySize=auto;html=1;entryX=0.5;entryY=0;entryDx=0;entryDy=0;" edge="1" parent="1" source="bjkUvZcgwg1lJS7RY962-1" target="bjkUvZcgwg1lJS7RY962-12">
          <mxGeometry relative="1" as="geometry" />
        </mxCell>
        <mxCell id="bjkUvZcgwg1lJS7RY962-1" value="&lt;font style=&quot;font-size: 20px;&quot;&gt;B&lt;/font&gt;" style="rounded=0;whiteSpace=wrap;html=1;" parent="1" vertex="1">
          <mxGeometry x="97" y="220" width="45" height="40" as="geometry" />
        </mxCell>
        <mxCell id="xQ8-l3OYiPr22vGl-wYF-6" style="edgeStyle=orthogonalEdgeStyle;rounded=0;orthogonalLoop=1;jettySize=auto;html=1;entryX=0.5;entryY=0;entryDx=0;entryDy=0;" edge="1" parent="1" source="bjkUvZcgwg1lJS7RY962-2" target="bjkUvZcgwg1lJS7RY962-13">
          <mxGeometry relative="1" as="geometry" />
        </mxCell>
        <mxCell id="bjkUvZcgwg1lJS7RY962-2" value="&lt;font style=&quot;font-size: 20px;&quot;&gt;C&lt;/font&gt;" style="rounded=0;whiteSpace=wrap;html=1;" parent="1" vertex="1">
          <mxGeometry x="142" y="220" width="45" height="40" as="geometry" />
        </mxCell>
        <mxCell id="xQ8-l3OYiPr22vGl-wYF-7" style="edgeStyle=orthogonalEdgeStyle;rounded=0;orthogonalLoop=1;jettySize=auto;html=1;entryX=0.5;entryY=0;entryDx=0;entryDy=0;" edge="1" parent="1" source="bjkUvZcgwg1lJS7RY962-3" target="bjkUvZcgwg1lJS7RY962-14">
          <mxGeometry relative="1" as="geometry" />
        </mxCell>
        <mxCell id="bjkUvZcgwg1lJS7RY962-3" value="&lt;font style=&quot;font-size: 20px;&quot;&gt;D&lt;/font&gt;" style="rounded=0;whiteSpace=wrap;html=1;" parent="1" vertex="1">
          <mxGeometry x="187" y="220" width="45" height="40" as="geometry" />
        </mxCell>
        <mxCell id="xQ8-l3OYiPr22vGl-wYF-8" style="edgeStyle=orthogonalEdgeStyle;rounded=0;orthogonalLoop=1;jettySize=auto;html=1;entryX=0.5;entryY=0;entryDx=0;entryDy=0;" edge="1" parent="1" source="bjkUvZcgwg1lJS7RY962-4" target="bjkUvZcgwg1lJS7RY962-15">
          <mxGeometry relative="1" as="geometry" />
        </mxCell>
        <mxCell id="bjkUvZcgwg1lJS7RY962-4" value="&lt;font style=&quot;font-size: 20px;&quot;&gt;E&lt;/font&gt;" style="rounded=0;whiteSpace=wrap;html=1;" parent="1" vertex="1">
          <mxGeometry x="232" y="220" width="45" height="40" as="geometry" />
        </mxCell>
        <mxCell id="bjkUvZcgwg1lJS7RY962-6" value="&lt;font style=&quot;font-size: 20px;&quot;&gt;X&lt;/font&gt;" style="rounded=0;whiteSpace=wrap;html=1;" parent="1" vertex="1">
          <mxGeometry x="322" y="220" width="45" height="40" as="geometry" />
        </mxCell>
        <mxCell id="bjkUvZcgwg1lJS7RY962-7" value="&lt;font style=&quot;font-size: 20px;&quot;&gt;Y&lt;/font&gt;" style="rounded=0;whiteSpace=wrap;html=1;" parent="1" vertex="1">
          <mxGeometry x="367" y="220" width="45" height="40" as="geometry" />
        </mxCell>
        <mxCell id="bjkUvZcgwg1lJS7RY962-8" value="&lt;span style=&quot;font-size: 20px;&quot;&gt;Z&lt;/span&gt;" style="rounded=0;whiteSpace=wrap;html=1;" parent="1" vertex="1">
          <mxGeometry x="412" y="220" width="45" height="40" as="geometry" />
        </mxCell>
        <mxCell id="bjkUvZcgwg1lJS7RY962-9" value="&lt;font style=&quot;font-size: 20px;&quot;&gt;...&lt;/font&gt;" style="text;html=1;align=center;verticalAlign=middle;resizable=0;points=[];autosize=1;strokeColor=none;fillColor=none;" parent="1" vertex="1">
          <mxGeometry x="279" y="220" width="40" height="40" as="geometry" />
        </mxCell>
        <mxCell id="bjkUvZcgwg1lJS7RY962-10" value="&lt;font style=&quot;font-size: 20px;&quot;&gt;B&lt;/font&gt;" style="rounded=0;whiteSpace=wrap;html=1;" parent="1" vertex="1">
          <mxGeometry x="-38" y="310" width="45" height="40" as="geometry" />
        </mxCell>
        <mxCell id="bjkUvZcgwg1lJS7RY962-11" value="&lt;font style=&quot;font-size: 20px;&quot;&gt;D&lt;/font&gt;" style="rounded=0;whiteSpace=wrap;html=1;" parent="1" vertex="1">
          <mxGeometry x="52" y="310" width="45" height="40" as="geometry" />
        </mxCell>
        <mxCell id="bjkUvZcgwg1lJS7RY962-12" value="&lt;font style=&quot;font-size: 20px;&quot;&gt;E&lt;/font&gt;" style="rounded=0;whiteSpace=wrap;html=1;" parent="1" vertex="1">
          <mxGeometry x="97" y="310" width="45" height="40" as="geometry" />
        </mxCell>
        <mxCell id="bjkUvZcgwg1lJS7RY962-13" value="&lt;font style=&quot;font-size: 20px;&quot;&gt;F&lt;/font&gt;" style="rounded=0;whiteSpace=wrap;html=1;" parent="1" vertex="1">
          <mxGeometry x="142" y="310" width="45" height="40" as="geometry" />
        </mxCell>
        <mxCell id="bjkUvZcgwg1lJS7RY962-14" value="&lt;span style=&quot;font-size: 20px;&quot;&gt;G&lt;/span&gt;" style="rounded=0;whiteSpace=wrap;html=1;" parent="1" vertex="1">
          <mxGeometry x="187" y="310" width="45" height="40" as="geometry" />
        </mxCell>
        <mxCell id="bjkUvZcgwg1lJS7RY962-15" value="&lt;font style=&quot;font-size: 20px;&quot;&gt;H&lt;/font&gt;" style="rounded=0;whiteSpace=wrap;html=1;" parent="1" vertex="1">
          <mxGeometry x="232" y="310" width="45" height="40" as="geometry" />
        </mxCell>
        <mxCell id="xQ8-l3OYiPr22vGl-wYF-4" style="edgeStyle=orthogonalEdgeStyle;rounded=0;orthogonalLoop=1;jettySize=auto;html=1;entryX=0.5;entryY=0;entryDx=0;entryDy=0;" edge="1" parent="1" source="bjkUvZcgwg1lJS7RY962-18" target="bjkUvZcgwg1lJS7RY962-11">
          <mxGeometry relative="1" as="geometry" />
        </mxCell>
        <mxCell id="bjkUvZcgwg1lJS7RY962-18" value="&lt;font style=&quot;font-size: 20px;&quot;&gt;A&lt;/font&gt;" style="rounded=0;whiteSpace=wrap;html=1;" parent="1" vertex="1">
          <mxGeometry x="52" y="220" width="45" height="40" as="geometry" />
        </mxCell>
        <mxCell id="bjkUvZcgwg1lJS7RY962-19" value="&lt;font style=&quot;font-size: 20px;&quot;&gt;A&lt;/font&gt;" style="rounded=0;whiteSpace=wrap;html=1;" parent="1" vertex="1">
          <mxGeometry x="-83" y="310" width="45" height="40" as="geometry" />
        </mxCell>
        <mxCell id="xQ8-l3OYiPr22vGl-wYF-1" value="&lt;font style=&quot;font-size: 20px;&quot;&gt;C&lt;/font&gt;" style="rounded=0;whiteSpace=wrap;html=1;" vertex="1" parent="1">
          <mxGeometry x="7" y="310" width="45" height="40" as="geometry" />
        </mxCell>
        <mxCell id="xQ8-l3OYiPr22vGl-wYF-3" value="&lt;font style=&quot;font-size: 20px;&quot;&gt;...&lt;/font&gt;" style="text;html=1;align=center;verticalAlign=middle;resizable=0;points=[];autosize=1;strokeColor=none;fillColor=none;" vertex="1" parent="1">
          <mxGeometry x="279" y="310" width="40" height="40" as="geometry" />
        </mxCell>
        <mxCell id="xQ8-l3OYiPr22vGl-wYF-9" style="edgeStyle=orthogonalEdgeStyle;rounded=0;orthogonalLoop=1;jettySize=auto;html=1;entryX=0.497;entryY=-0.059;entryDx=0;entryDy=0;entryPerimeter=0;" edge="1" parent="1" source="bjkUvZcgwg1lJS7RY962-9" target="xQ8-l3OYiPr22vGl-wYF-3">
          <mxGeometry relative="1" as="geometry" />
        </mxCell>
      </root>
    </mxGraphModel>
  </diagram>
</mxfile>
